# xmcd
#
# Track frame offsets:
#	150
#	14088
#	31228
#	43813
#	55749
#	72888
#	85525
#	104053
#	118316
#	133032
#	144396
#	162275
#	176765
#	195409
#	210732
#
# Disc length: 2969 seconds
#
# Revision: 1
# Processed by: cddbd v1.5.1PL2 Copyright (c) Steve Scherf et al.
# Submitted via: audiograbber 1.83.01
#
DISCID=d90b970f
DTITLE=Linda Gail Lewis and The Rockarounds - Me and the boys in the band
DYEAR=2005
DGENRE=Country
TTITLE0=From Sweden to Memphis
TTITLE1=Who's that guy
TTITLE2=So good
TTITLE3=Honky Tonk boogie gal
TTITLE4=I'm burned out
TTITLE5=Me and the boys in the band (Duett med Jerry Williams)
TTITLE6=A ray of hope
TTITLE7=Call me soon
TTITLE8=The forgiver
TTITLE9=Looks like love
TTITLE10=That much
TTITLE11=She's in my dreams
TTITLE12=They were rocking
TTITLE13=I never knew what misery was
TTITLE14=At last
EXTD=
EXTT0=
EXTT1=
EXTT2=
EXTT3=
EXTT4=
EXTT5=
EXTT6=
EXTT7=
EXTT8=
EXTT9=
EXTT10=
EXTT11=
EXTT12=
EXTT13=
EXTT14=
PLAYORDER=
